<svg width="57" height="56" viewBox="0 0 57 56" fill="none" xmlns="http://www.w3.org/2000/svg">
<g clip-path="url(#clip0_1002_32214)">
<path d="M46.6581 0.65625H22.0488C19.39 0.65625 17.1683 2.52925 16.6799 5.00242C11.9509 5.47518 8.37695 9.29412 8.37695 14.0839V22.1407C8.37695 24.8521 10.4332 27.1006 13.0946 27.4611C14.0523 31.8258 16.9445 35.492 20.8427 37.5481C16.2482 38.3625 12.7518 42.319 12.7518 47.0625V54.582C12.7518 55.1752 13.2415 55.6563 13.8456 55.6563H42.283C42.887 55.6563 43.3767 55.1752 43.3767 54.582V47.0625C43.3767 42.3189 39.8802 38.3624 35.2856 37.5481C40.0976 35.01 43.3767 30.0185 43.3767 24.289V12.1942C46.0397 10.1267 47.7517 6.92676 47.7517 3.34179V1.73046C47.7518 1.13728 47.2621 0.65625 46.6581 0.65625V0.65625ZM25.8769 39.175C27.3 39.3785 28.8288 39.3785 30.2519 39.1749V40.4022C30.1416 43.2492 25.9862 43.247 25.8769 40.4022V39.175ZM41.1893 47.0625V53.5078H37.9081V50.8223C37.8543 49.3985 35.774 49.3996 35.7206 50.8223V53.5078H20.4082V50.8223C20.3543 49.3985 18.2739 49.3996 18.2207 50.8223V53.5078H14.9394V47.0625C14.9394 42.9163 18.374 39.543 22.5957 39.543H23.6894V40.4022C23.9101 46.0962 32.2207 46.0919 32.4394 40.4022V39.543H33.5331C37.7548 39.543 41.1893 42.9163 41.1893 47.0625ZM41.1893 24.289C40.5274 41.3709 15.5952 41.3579 14.9394 24.289V18.8099C17.079 18.3817 18.7685 16.7223 19.2046 14.621H36.2675C38.0276 14.621 39.6968 14.2299 41.1893 13.5319V24.289ZM45.5643 3.34179C45.5643 8.37652 41.3939 12.4726 36.2675 12.4726H18.2207C17.6166 12.4726 17.1269 12.9536 17.1269 13.5468C17.1269 15.3238 15.655 16.7695 13.8457 16.7695C13.2416 16.7695 12.7519 17.2505 12.7519 17.8437V24.289C12.7519 24.591 12.761 24.8906 12.7791 25.1884C11.4918 24.7526 10.5644 23.551 10.5644 22.1407V14.0839C10.5644 10.1686 13.6872 7.10154 17.6738 7.10154C18.2779 7.10154 18.7675 6.6205 18.7675 6.02732C18.7675 4.25036 20.2395 2.80468 22.0488 2.80468H45.5643V3.34179Z" fill="#0CBD68"/>
<path d="M23.5215 24.3553C23.9487 24.7749 24.6412 24.7748 25.0683 24.3552C25.4954 23.9357 25.4954 23.2557 25.0683 22.8361C23.6535 21.3879 21.1083 21.388 19.6934 22.8361C19.2663 23.2556 19.2662 23.9356 19.6934 24.3552C20.1205 24.7748 20.8131 24.7748 21.2402 24.3553C21.8408 23.7406 22.921 23.7406 23.5215 24.3553Z" fill="#0CBD68"/>
<path d="M31.0606 22.8361C30.6335 23.2556 30.6334 23.9356 31.0606 24.3552C31.4877 24.7748 32.1803 24.7748 32.6074 24.3553C33.208 23.7407 34.2883 23.7407 34.8887 24.3553C35.3158 24.7749 36.0084 24.7748 36.4355 24.3552C36.8626 23.9357 36.8626 23.2557 36.4355 22.8361C35.0205 21.3879 32.4755 21.388 31.0606 22.8361Z" fill="#0CBD68"/>
<path d="M33.5332 26.9766H22.5957C21.9916 26.9766 21.502 27.4576 21.502 28.0508C21.8323 36.5904 34.2987 36.5863 34.627 28.0507C34.627 27.4576 34.1373 26.9766 33.5332 26.9766ZM28.0645 32.3475C26.0296 32.3475 24.3147 30.9761 23.8279 29.125H32.3011C31.8142 30.9761 30.0994 32.3475 28.0645 32.3475Z" fill="#0CBD68"/>
</g>
<defs>
<clipPath id="clip0_1002_32214">
<rect width="56" height="55" fill="white" transform="translate(0.0644531 0.65625)"/>
</clipPath>
</defs>
</svg>
